<mxfile host="app.diagrams.net" modified="2023-11-29T10:38:33.503Z" agent="Mozilla/5.0 (Macintosh; Intel Mac OS X 10_15_7) AppleWebKit/537.36 (KHTML, like Gecko) Chrome/119.0.0.0 Safari/537.36" version="22.1.4" etag="JB6pogA7u1OcjS69URQH" type="github">
  <diagram name="Page-1" id="0lo2Jd1xqwD9dVcV6O_l">
    <mxGraphModel>
      <root>
        <mxCell id="0" />
        <mxCell id="1" parent="0" />
      </root>
    </mxGraphModel>
  </diagram>
</mxfile>
